<svg xmlns="http://www.w3.org/2000/svg" width="1092" height="905" fill="none"><mask id="a" width="1075" height="847" x="17" y="18" maskUnits="userSpaceOnUse" style="mask-type:alpha"><path fill="#1D1576" d="m650 143 5.774-10h-11.548L650 143zm441.5-68H706v2h385.5v-2zM649 132v2h2v-2h-2zm57-57c-31.48 0-57 25.52-57 57h2c0-30.376 24.624-55 55-55v-2z"/><path stroke="#1D1576" stroke-width="2" d="M1058.5 45H689c-39.765 0-72 32.236-72 72v262"/><path stroke="#1D1576" stroke-width="2" d="M1027.5 19H674c-48.601 0-88 39.399-88 88v246m-62.5 178H138c-30.928 0-56 25.072-56 56v278"/><path stroke="#1D1576" stroke-width="2" d="M187.5 500H121c-39.764 0-72 32.236-72 72v262"/><path fill="#1D1576" d="m234 500 10 5.774v-11.548L234 500zm256.5-1H243v2h247.5v-2z"/><path stroke="#1D1576" stroke-width="2" d="M459.5 474H106c-48.601 0-88 39.399-88 88v246"/></mask><g mask="url(#a)"><g filter="url(#b)"><path fill="#DEC1E5" d="M253.896 101.042c1.349-2.463 3.061-5.108 4.608-7.856-.233-1.638-.337-3.507 1.643-5.054 2.778-2.17-.792-1.4-.792-4.863 0-11.828 11.422-17.025 18.226-25.377 6.175-7.578 17.015-11.306 25.976-13.705 24.123-6.46 51.519-18.577 75.988-8.046 34.546 14.867 60.182 43.407 81.799 73.301 20.901 28.901 40.483 56.174 48.957 91.427 6.658 27.702-7.204 55.046-25.007 75.777-23.246 27.068-67.02 34.295-99.322 42.796-39.532 10.403-80.966 8.619-121.51 8.134-22.904-.273-44.288-5.08-66.391-10.787-16.451-4.248-32.32-9.581-46.139-19.806-16.521-12.225-36.2-36.328-34.868-58.181 1.479-24.251 18.914-38.53 38.038-51.285 10.726-7.154 22.326-11.117 33.636-16.976 14.387-7.454 26.24-19.172 36.981-31.125 10.685-11.889 20.476-24.324 28.177-38.374z"/></g><g filter="url(#c)"><path fill="#DDFFE8" d="M1042.06 264.382c-.08 2.807-.4 5.941-.53 9.092.95 1.354 1.89 2.971.83 5.249-1.49 3.194 1.34.886 2.92 3.971 5.37 10.536-2.44 20.356-4.71 30.889-2.05 9.556-10.01 17.804-16.9 24.014-18.55 16.718-37.45 39.963-64.031 41.705-37.53 2.459-73.336-11.311-106.179-28.113-31.753-16.244-61.592-31.636-85.163-59.186-18.522-21.648-18.603-52.306-12.168-78.863 8.403-34.676 44.11-61.01 69.018-83.263 30.485-27.236 68.202-44.479 104.537-62.475 20.526-10.167 41.758-15.605 64.04-20.567 16.586-3.694 33.146-6.156 50.096-3.33 20.28 3.38 48.76 15.905 57.51 35.977 9.7 22.272.66 42.916-10.58 62.969-6.3 11.248-14.83 20.051-22.24 30.41-9.43 13.178-14.66 29.004-18.79 44.533-4.12 15.447-7.19 30.973-7.66 46.988z"/></g><g filter="url(#d)"><path fill="#DDFFE8" d="M175.896 422.042c1.349-2.463 3.061-5.108 4.608-7.856-.233-1.638-.337-3.507 1.643-5.054 2.778-2.169-.792-1.4-.792-4.863 0-11.828 11.422-17.025 18.226-25.377 6.175-7.578 17.015-11.306 25.976-13.705 24.123-6.46 51.519-18.577 75.988-8.046 34.546 14.867 60.182 43.407 81.799 73.301 20.901 28.901 40.483 56.174 48.957 91.427 6.658 27.702-7.204 55.046-25.007 75.777-23.246 27.068-67.02 34.295-99.322 42.796-39.532 10.403-80.966 8.619-121.51 8.134-22.904-.273-44.288-5.08-66.391-10.787-16.451-4.248-32.32-9.581-46.139-19.806-16.521-12.225-36.2-36.328-34.868-58.181 1.479-24.251 18.914-38.53 38.038-51.285 10.726-7.154 22.326-11.117 33.636-16.976 14.387-7.454 26.24-19.172 36.981-31.125 10.685-11.889 20.476-24.324 28.177-38.374z"/></g><g filter="url(#e)"><path fill="#EBCB9C" fill-opacity=".28" d="M946.896 272.042c1.349-2.463 3.061-5.108 4.608-7.856-.233-1.638-.337-3.507 1.643-5.054 2.778-2.169-.792-1.4-.792-4.863 0-11.828 11.422-17.025 18.226-25.377 6.175-7.578 17.015-11.306 25.976-13.705 24.123-6.46 51.523-18.577 75.983-8.046 34.55 14.867 60.19 43.407 81.8 73.301 20.9 28.901 40.49 56.174 48.96 91.427 6.66 27.702-7.2 55.046-25.01 75.777-23.24 27.068-67.02 34.295-99.32 42.796-39.53 10.403-80.964 8.619-121.508 8.134-22.904-.273-44.288-5.08-66.391-10.787-16.451-4.248-32.32-9.581-46.139-19.806-16.521-12.225-36.2-36.328-34.868-58.181 1.479-24.251 18.914-38.53 38.038-51.285 10.726-7.154 22.326-11.117 33.636-16.976 14.387-7.454 26.24-19.172 36.981-31.125 10.685-11.889 20.476-24.324 28.177-38.374z"/></g><g filter="url(#f)"><path fill="#C4D7F5" d="M900.896 297.042c1.349-2.463 3.061-5.108 4.608-7.856-.233-1.638-.337-3.507 1.643-5.054 2.778-2.169-.792-1.4-.792-4.863 0-11.828 11.422-17.025 18.226-25.377 6.175-7.578 17.015-11.306 25.976-13.705 24.123-6.46 51.523-18.577 75.983-8.046 34.55 14.867 60.19 43.407 81.8 73.301 20.9 28.901 40.49 56.174 48.96 91.427 6.66 27.702-7.2 55.046-25.01 75.777-23.24 27.068-67.02 34.295-99.32 42.796-39.53 10.403-80.964 8.619-121.508 8.134-22.904-.273-44.288-5.08-66.391-10.787-16.451-4.248-32.32-9.581-46.139-19.806-16.521-12.225-36.2-36.328-34.868-58.181 1.479-24.251 18.914-38.53 38.038-51.285 10.726-7.154 22.326-11.117 33.636-16.976 14.387-7.454 26.24-19.172 36.981-31.125 10.685-11.889 20.476-24.324 28.177-38.374z"/></g><g filter="url(#g)"><path fill="#C4D7F5" fill-opacity=".62" d="M-145.104 351.042c1.349-2.463 3.061-5.108 4.608-7.856-.233-1.638-.337-3.507 1.643-5.054 2.778-2.169-.792-1.4-.792-4.863 0-11.828 11.422-17.025 18.226-25.377 6.175-7.578 17.015-11.306 25.975-13.705 24.124-6.46 51.52-18.577 75.989-8.046 34.546 14.867 60.182 43.407 81.8 73.301 20.9 28.901 40.482 56.174 48.956 91.427 6.658 27.702-7.204 55.046-25.007 75.777-23.246 27.068-67.02 34.295-99.322 42.796-39.532 10.403-80.966 8.619-121.51 8.134-22.904-.273-44.288-5.08-66.391-10.787-16.451-4.248-32.32-9.581-46.139-19.806-16.521-12.225-36.2-36.328-34.868-58.181 1.479-24.251 18.914-38.53 38.038-51.285 10.726-7.154 22.326-11.117 33.636-16.976 14.387-7.454 26.24-19.172 36.981-31.125 10.685-11.889 20.476-24.324 28.177-38.374z"/></g><g filter="url(#h)"><path fill="#D2CAF3" d="M600.896 80.042c1.349-2.463 3.061-5.108 4.608-7.856-.233-1.638-.337-3.507 1.643-5.054 2.778-2.17-.792-1.4-.792-4.863 0-11.828 11.422-17.025 18.226-25.377 6.175-7.578 17.015-11.306 25.976-13.705 24.123-6.46 51.519-18.577 75.988-8.047 34.546 14.869 60.182 43.408 81.799 73.302 20.901 28.901 40.483 56.174 48.957 91.427 6.658 27.702-7.204 55.046-25.007 75.777-23.246 27.068-67.02 34.295-99.322 42.796-39.532 10.403-80.966 8.619-121.51 8.134-22.904-.273-44.288-5.08-66.391-10.787-16.451-4.248-32.32-9.581-46.139-19.806-16.521-12.225-36.2-36.328-34.868-58.181 1.479-24.251 18.914-38.53 38.038-51.285 10.726-7.154 22.326-11.117 33.636-16.976 14.387-7.454 26.24-19.172 36.981-31.125 10.685-11.889 20.476-24.324 28.177-38.374z"/></g><g filter="url(#i)"><path fill="#D2CAF3" d="M522.896 401.042c1.349-2.463 3.061-5.108 4.608-7.856-.233-1.638-.337-3.507 1.643-5.054 2.778-2.169-.792-1.4-.792-4.863 0-11.828 11.422-17.025 18.226-25.377 6.175-7.578 17.015-11.306 25.976-13.705 24.123-6.46 51.519-18.577 75.988-8.046 34.546 14.867 60.182 43.407 81.799 73.301 20.901 28.901 40.483 56.174 48.957 91.427 6.658 27.702-7.204 55.046-25.007 75.777-23.246 27.068-67.02 34.295-99.322 42.796-39.532 10.403-80.966 8.619-121.51 8.134-22.904-.273-44.288-5.08-66.391-10.787-16.451-4.248-32.32-9.581-46.139-19.806-16.521-12.225-36.2-36.328-34.868-58.181 1.479-24.251 18.914-38.53 38.038-51.285 10.726-7.154 22.326-11.117 33.636-16.976 14.387-7.454 26.24-19.172 36.981-31.125 10.685-11.889 20.476-24.324 28.177-38.374z"/></g><g filter="url(#j)"><path fill="#D2CAF3" d="M-183.104 56.042c1.349-2.463 3.061-5.108 4.608-7.855-.233-1.64-.337-3.508 1.643-5.055 2.778-2.17-.792-1.4-.792-4.863 0-11.828 11.422-17.025 18.226-25.377 6.175-7.578 17.015-11.306 25.976-13.705 24.123-6.46 51.52-18.577 75.988-8.046 34.546 14.867 60.182 43.407 81.8 73.3 20.9 28.903 40.482 56.175 48.956 91.428 6.658 27.702-7.204 55.046-25.007 75.777-23.246 27.068-67.02 34.295-99.322 42.796-39.532 10.403-80.966 8.619-121.51 8.134-22.904-.273-44.288-5.08-66.391-10.787-16.451-4.248-32.32-9.581-46.139-19.806-16.521-12.225-36.2-36.328-34.868-58.181 1.479-24.251 18.914-38.53 38.038-51.285 10.726-7.154 22.326-11.117 33.636-16.976 14.387-7.454 26.24-19.172 36.981-31.125 10.685-11.89 20.476-24.324 28.177-38.374z"/></g><g filter="url(#k)"><path fill="#EBCB9C" fill-opacity=".28" d="M957.896 82.042c1.349-2.463 3.061-5.108 4.608-7.856-.233-1.638-.337-3.507 1.643-5.054 2.778-2.17-.792-1.4-.792-4.863 0-11.828 11.422-17.025 18.226-25.377 6.175-7.578 17.015-11.306 25.979-13.705 24.12-6.46 51.52-18.577 75.98-8.047 34.55 14.868 60.19 43.408 81.8 73.302 20.9 28.901 40.49 56.174 48.96 91.427 6.66 27.702-7.2 55.046-25.01 75.777-23.24 27.068-67.02 34.295-99.32 42.796-39.53 10.403-80.96 8.619-121.508 8.134-22.904-.273-44.288-5.08-66.391-10.787-16.451-4.248-32.32-9.581-46.139-19.806-16.521-12.225-36.2-36.328-34.868-58.181 1.479-24.251 18.914-38.53 38.038-51.285 10.726-7.154 22.326-11.117 33.636-16.976 14.387-7.454 26.24-19.172 36.981-31.125 10.685-11.889 20.476-24.324 28.177-38.374z"/></g><g filter="url(#l)"><path fill="#DEC1E5" d="M535.896 136.042c1.349-2.463 3.061-5.108 4.608-7.856-.233-1.638-.337-3.507 1.643-5.054 2.778-2.169-.792-1.4-.792-4.863 0-11.828 11.422-17.025 18.226-25.377 6.175-7.578 17.015-11.306 25.976-13.705 24.123-6.46 51.519-18.577 75.988-8.046 34.546 14.867 60.182 43.407 81.799 73.301 20.901 28.901 40.483 56.174 48.957 91.427 6.658 27.702-7.204 55.046-25.007 75.777-23.246 27.068-67.02 34.295-99.322 42.796-39.532 10.403-80.966 8.619-121.51 8.134-22.904-.273-44.288-5.08-66.391-10.787-16.451-4.248-32.32-9.581-46.139-19.806-16.521-12.225-36.2-36.328-34.868-58.181 1.479-24.251 18.914-38.53 38.038-51.285 10.726-7.154 22.326-11.117 33.636-16.976 14.387-7.454 26.24-19.172 36.981-31.125 10.685-11.889 20.476-24.324 28.177-38.374z"/></g><g filter="url(#m)"><path fill="#DDFFE8" d="M1324.06 299.382c-.08 2.807-.4 5.941-.53 9.092.95 1.354 1.89 2.971.83 5.249-1.49 3.194 1.34.886 2.92 3.971 5.37 10.536-2.44 20.356-4.71 30.889-2.05 9.556-10.01 17.804-16.9 24.014-18.55 16.718-37.45 39.963-64.03 41.705-37.53 2.459-73.34-11.311-106.18-28.113-31.75-16.244-61.59-31.636-85.16-59.186-18.52-21.648-18.61-52.306-12.17-78.863 8.4-34.676 44.11-61.01 69.02-83.263 30.48-27.236 68.2-44.479 104.53-62.475 20.53-10.167 41.76-15.605 64.04-20.567 16.59-3.694 33.15-6.156 50.1-3.33 20.28 3.38 48.76 15.905 57.51 35.977 9.7 22.272.66 42.916-10.58 62.969-6.3 11.248-14.83 20.051-22.24 30.41-9.43 13.178-14.66 29.004-18.79 44.533-4.12 15.447-7.19 30.973-7.66 46.988z"/></g><g filter="url(#n)"><path fill="#DDFFE8" d="M457.896 457.042c1.349-2.463 3.061-5.108 4.608-7.856-.233-1.638-.337-3.507 1.643-5.054 2.778-2.169-.792-1.4-.792-4.863 0-11.828 11.422-17.025 18.226-25.377 6.175-7.578 17.015-11.306 25.976-13.705 24.123-6.46 51.519-18.577 75.988-8.046 34.546 14.867 60.182 43.407 81.799 73.301 20.901 28.901 40.483 56.174 48.957 91.427 6.658 27.702-7.204 55.046-25.007 75.777-23.246 27.068-67.02 34.295-99.322 42.796-39.532 10.403-80.966 8.619-121.51 8.134-22.904-.273-44.288-5.08-66.391-10.787-16.451-4.248-32.32-9.581-46.139-19.806-16.521-12.225-36.2-36.328-34.868-58.181 1.479-24.251 18.914-38.53 38.038-51.285 10.726-7.154 22.326-11.117 33.636-16.976 14.387-7.454 26.24-19.172 36.981-31.125 10.685-11.889 20.476-24.324 28.177-38.374z"/></g><g filter="url(#o)"><path fill="#EBCB9C" fill-opacity=".28" d="M1228.9 307.042c1.35-2.463 3.06-5.108 4.6-7.856-.23-1.638-.33-3.507 1.65-5.054 2.77-2.169-.8-1.4-.8-4.863 0-11.828 11.43-17.025 18.23-25.377 6.18-7.578 17.02-11.306 25.98-13.705 24.12-6.46 51.52-18.577 75.98-8.046 34.55 14.867 60.19 43.407 81.8 73.301 20.9 28.901 40.49 56.174 48.96 91.427 6.66 27.702-7.2 55.046-25.01 75.777-23.24 27.068-67.02 34.295-99.32 42.796-39.53 10.403-80.96 8.619-121.51 8.134-22.9-.273-44.29-5.08-66.39-10.787-16.45-4.248-32.32-9.581-46.14-19.806-16.52-12.225-36.2-36.328-34.87-58.181 1.48-24.251 18.92-38.53 38.04-51.285 10.73-7.154 22.33-11.117 33.64-16.976 14.38-7.454 26.24-19.172 36.98-31.125 10.68-11.889 20.47-24.324 28.18-38.374z"/></g><g filter="url(#p)"><path fill="#C4D7F5" d="M1182.9 332.042c1.35-2.463 3.06-5.108 4.6-7.856-.23-1.638-.33-3.507 1.65-5.054 2.77-2.169-.8-1.4-.8-4.863 0-11.828 11.43-17.025 18.23-25.377 6.18-7.578 17.02-11.306 25.98-13.705 24.12-6.46 51.52-18.577 75.98-8.046 34.55 14.867 60.19 43.407 81.8 73.301 20.9 28.901 40.49 56.174 48.96 91.427 6.66 27.702-7.2 55.046-25.01 75.777-23.24 27.068-67.02 34.295-99.32 42.796-39.53 10.403-80.96 8.619-121.51 8.134-22.9-.273-44.29-5.08-66.39-10.787-16.45-4.248-32.32-9.581-46.14-19.806-16.52-12.225-36.2-36.328-34.87-58.181 1.48-24.251 18.92-38.53 38.04-51.285 10.73-7.154 22.33-11.117 33.64-16.976 14.38-7.454 26.24-19.172 36.98-31.125 10.68-11.889 20.47-24.324 28.18-38.374z"/></g><g filter="url(#q)"><path fill="#C4D7F5" fill-opacity=".62" d="M136.896 386.042c1.349-2.463 3.061-5.108 4.608-7.856-.233-1.638-.337-3.507 1.643-5.054 2.778-2.169-.792-1.4-.792-4.863 0-11.828 11.422-17.025 18.226-25.377 6.175-7.578 17.015-11.306 25.976-13.705 24.123-6.46 51.519-18.577 75.988-8.046 34.546 14.867 60.182 43.407 81.799 73.301 20.901 28.901 40.483 56.174 48.957 91.427 6.658 27.702-7.204 55.046-25.007 75.777-23.246 27.068-67.02 34.295-99.322 42.796-39.532 10.403-80.966 8.619-121.51 8.134-22.904-.273-44.288-5.08-66.39-10.787-16.452-4.248-32.32-9.581-46.14-19.806-16.521-12.225-36.2-36.328-34.868-58.181 1.479-24.251 18.914-38.53 38.038-51.285 10.726-7.154 22.326-11.117 33.636-16.976 14.387-7.454 26.24-19.172 36.981-31.125 10.685-11.889 20.476-24.324 28.177-38.374z"/></g><g filter="url(#r)"><path fill="#D2CAF3" d="M882.896 115.042c1.349-2.463 3.061-5.108 4.608-7.856-.233-1.638-.337-3.507 1.643-5.054 2.778-2.17-.792-1.4-.792-4.863 0-11.828 11.422-17.025 18.226-25.377 6.175-7.578 17.015-11.306 25.976-13.705 24.123-6.46 51.519-18.577 75.983-8.046 34.55 14.867 60.19 43.407 81.8 73.301 20.9 28.901 40.49 56.174 48.96 91.427 6.66 27.702-7.2 55.046-25.01 75.777-23.24 27.068-67.02 34.295-99.32 42.796-39.53 10.403-80.964 8.619-121.508 8.134-22.904-.273-44.288-5.08-66.391-10.787-16.451-4.248-32.32-9.581-46.139-19.806-16.521-12.225-36.2-36.328-34.868-58.181 1.479-24.251 18.914-38.53 38.038-51.285 10.726-7.154 22.326-11.117 33.636-16.976 14.387-7.454 26.24-19.172 36.981-31.125 10.685-11.889 20.476-24.324 28.177-38.374z"/></g><g filter="url(#s)"><path fill="#D2CAF3" d="M804.896 436.042c1.349-2.463 3.061-5.108 4.608-7.856-.233-1.638-.337-3.507 1.643-5.054 2.778-2.169-.792-1.4-.792-4.863 0-11.828 11.422-17.025 18.226-25.377 6.175-7.578 17.015-11.306 25.976-13.705 24.123-6.46 51.519-18.577 75.988-8.046 34.546 14.867 60.182 43.407 81.795 73.301 20.9 28.901 40.49 56.174 48.96 91.427 6.66 27.702-7.2 55.046-25.01 75.777-23.24 27.068-67.016 34.295-99.318 42.796-39.532 10.403-80.966 8.619-121.51 8.134-22.904-.273-44.288-5.08-66.391-10.787-16.451-4.248-32.32-9.581-46.139-19.806-16.521-12.225-36.2-36.328-34.868-58.181 1.479-24.251 18.914-38.53 38.038-51.285 10.726-7.154 22.326-11.117 33.636-16.976 14.387-7.454 26.24-19.172 36.981-31.125 10.685-11.889 20.476-24.324 28.177-38.374z"/></g><g filter="url(#t)"><path fill="#D2CAF3" d="M98.896 91.042c1.349-2.463 3.061-5.108 4.608-7.856-.233-1.638-.337-3.507 1.643-5.054 2.778-2.17-.792-1.4-.792-4.863 0-11.828 11.422-17.025 18.226-25.377 6.175-7.578 17.015-11.306 25.976-13.705 24.123-6.46 51.519-18.577 75.988-8.046 34.546 14.867 60.182 43.407 81.799 73.3 20.901 28.902 40.483 56.175 48.957 91.428 6.658 27.702-7.204 55.046-25.007 75.777-23.246 27.068-67.02 34.295-99.322 42.796-39.532 10.403-80.966 8.619-121.51 8.134-22.904-.273-44.288-5.08-66.39-10.787-16.452-4.248-32.32-9.581-46.14-19.806-16.521-12.225-36.2-36.328-34.868-58.181 1.479-24.251 18.914-38.53 38.038-51.285 10.726-7.154 22.326-11.117 33.636-16.976 14.387-7.454 26.24-19.172 36.981-31.125 10.685-11.889 20.476-24.324 28.177-38.374z"/></g><g filter="url(#u)"><path fill="#EBCB9C" fill-opacity=".28" d="M1239.9 117.042c1.35-2.463 3.06-5.108 4.6-7.856-.23-1.638-.33-3.507 1.65-5.054 2.77-2.169-.8-1.4-.8-4.863 0-11.828 11.43-17.025 18.23-25.377 6.18-7.578 17.02-11.306 25.98-13.705 24.12-6.46 51.52-18.577 75.98-8.046 34.55 14.867 60.19 43.407 81.8 73.301 20.9 28.901 40.49 56.174 48.96 91.427 6.66 27.702-7.2 55.046-25.01 75.777-23.24 27.068-67.02 34.295-99.32 42.796-39.53 10.403-80.96 8.619-121.51 8.134-22.9-.273-44.29-5.08-66.39-10.787-16.45-4.248-32.32-9.581-46.14-19.806-16.52-12.225-36.2-36.328-34.87-58.181 1.48-24.251 18.92-38.53 38.04-51.285 10.73-7.154 22.33-11.117 33.64-16.976 14.38-7.454 26.24-19.172 36.98-31.125 10.68-11.889 20.47-24.324 28.18-38.374z"/></g><g filter="url(#v)"><path fill="#DEC1E5" d="M733.896 18.042c1.349-2.463 3.061-5.108 4.608-7.856-.233-1.638-.337-3.507 1.643-5.054 2.778-2.17-.792-1.4-.792-4.863 0-11.828 11.422-17.025 18.226-25.377 6.175-7.578 17.015-11.306 25.976-13.705 24.123-6.46 51.519-18.577 75.988-8.046 34.546 14.868 60.182 43.407 81.799 73.3 20.901 28.902 40.483 56.175 48.957 91.428 6.658 27.702-7.204 55.046-25.007 75.777-23.246 27.068-67.02 34.295-99.322 42.796-39.532 10.403-80.966 8.619-121.51 8.134-22.904-.273-44.288-5.08-66.391-10.787-16.451-4.248-32.32-9.581-46.139-19.806-16.521-12.225-36.2-36.328-34.868-58.181 1.479-24.251 18.914-38.53 38.038-51.285 10.726-7.154 22.326-11.117 33.636-16.977 14.387-7.453 26.24-19.171 36.981-31.124 10.685-11.89 20.476-24.324 28.177-38.374z"/></g><g filter="url(#w)"><path fill="#DDFFE8" d="M1522.06 181.382c-.08 2.807-.4 5.941-.53 9.092.95 1.354 1.89 2.971.83 5.249-1.49 3.194 1.34.886 2.92 3.971 5.37 10.536-2.44 20.356-4.71 30.889-2.05 9.556-10.01 17.804-16.9 24.014-18.55 16.718-37.45 39.963-64.03 41.705-37.53 2.459-73.34-11.311-106.18-28.113-31.75-16.244-61.59-31.636-85.16-59.186-18.52-21.648-18.61-52.306-12.17-78.863 8.4-34.676 44.11-61.01 69.02-83.263 30.48-27.236 68.2-44.479 104.53-62.475 20.53-10.167 41.76-15.605 64.04-20.567 16.59-3.694 33.15-6.156 50.1-3.33 20.28 3.38 48.76 15.905 57.51 35.977 9.7 22.272.66 42.916-10.58 62.97-6.3 11.247-14.83 20.05-22.24 30.41-9.43 13.177-14.66 29.003-18.79 44.532-4.12 15.447-7.19 30.973-7.66 46.988z"/></g><g filter="url(#x)"><path fill="#DDFFE8" d="M655.896 339.042c1.349-2.463 3.061-5.108 4.608-7.856-.233-1.638-.337-3.507 1.643-5.054 2.778-2.169-.792-1.4-.792-4.863 0-11.828 11.422-17.025 18.226-25.377 6.175-7.578 17.015-11.306 25.976-13.705 24.123-6.46 51.519-18.577 75.988-8.046 34.546 14.867 60.182 43.407 81.799 73.301 20.901 28.901 40.483 56.174 48.957 91.427 6.658 27.702-7.204 55.046-25.007 75.777-23.246 27.068-67.02 34.295-99.322 42.796-39.532 10.403-80.966 8.619-121.51 8.134-22.904-.273-44.288-5.08-66.391-10.787-16.451-4.248-32.32-9.581-46.139-19.806-16.521-12.225-36.2-36.328-34.868-58.181 1.479-24.251 18.914-38.53 38.038-51.285 10.726-7.154 22.326-11.117 33.636-16.976 14.387-7.454 26.24-19.172 36.981-31.125 10.685-11.889 20.476-24.324 28.177-38.374z"/></g><g filter="url(#y)"><path fill="#C4D7F5" d="M1380.9 214.042c1.35-2.463 3.06-5.108 4.6-7.856-.23-1.638-.33-3.507 1.65-5.054 2.77-2.169-.8-1.4-.8-4.863 0-11.828 11.43-17.025 18.23-25.377 6.18-7.578 17.02-11.306 25.98-13.705 24.12-6.46 51.52-18.577 75.98-8.046 34.55 14.867 60.19 43.407 81.8 73.301 20.9 28.901 40.49 56.174 48.96 91.427 6.66 27.702-7.2 55.046-25.01 75.777-23.24 27.068-67.02 34.295-99.32 42.796-39.53 10.403-80.96 8.619-121.51 8.134-22.9-.273-44.29-5.08-66.39-10.787-16.45-4.248-32.32-9.581-46.14-19.806-16.52-12.225-36.2-36.328-34.87-58.181 1.48-24.251 18.92-38.53 38.04-51.285 10.73-7.154 22.33-11.117 33.64-16.976 14.38-7.454 26.24-19.172 36.98-31.125 10.68-11.889 20.47-24.324 28.18-38.374z"/></g><g filter="url(#z)"><path fill="#C4D7F5" fill-opacity=".62" d="M239.896 181.042c1.349-2.463 3.061-5.108 4.608-7.856-.233-1.638-.337-3.507 1.643-5.054 2.778-2.169-.792-1.4-.792-4.863 0-11.828 11.422-17.025 18.226-25.377 6.175-7.578 17.015-11.306 25.976-13.705 24.123-6.46 51.519-18.577 75.988-8.046 34.546 14.867 60.182 43.407 81.799 73.301 20.901 28.901 40.483 56.174 48.957 91.427 6.658 27.702-7.204 55.046-25.007 75.777-23.246 27.068-67.02 34.295-99.322 42.796-39.532 10.403-80.966 8.619-121.51 8.134-22.904-.273-44.288-5.08-66.391-10.787-16.451-4.248-32.32-9.581-46.139-19.806-16.521-12.225-36.2-36.328-34.868-58.181 1.479-24.251 18.914-38.53 38.038-51.285 10.726-7.154 22.326-11.117 33.636-16.976 14.387-7.454 26.24-19.172 36.981-31.125 10.685-11.889 20.476-24.324 28.177-38.374z"/></g><g filter="url(#A)"><path fill="#D2CAF3" d="M1080.9-2.958c1.35-2.463 3.06-5.108 4.6-7.855-.23-1.64-.33-3.508 1.65-5.055 2.77-2.17-.8-1.4-.8-4.863 0-11.828 11.43-17.025 18.23-25.377 6.18-7.578 17.02-11.306 25.98-13.705 24.12-6.46 51.52-18.577 75.98-8.046 34.55 14.867 60.19 43.407 81.8 73.3 20.9 28.902 40.49 56.175 48.96 91.428 6.66 27.702-7.2 55.046-25.01 75.777-23.24 27.068-67.02 34.295-99.32 42.796-39.53 10.403-80.96 8.619-121.51 8.134-22.9-.273-44.29-5.08-66.39-10.787-16.45-4.248-32.319-9.581-46.138-19.806-16.521-12.225-36.2-36.328-34.868-58.181 1.479-24.251 18.914-38.53 38.038-51.285 10.726-7.154 22.328-11.117 33.638-16.977 14.38-7.453 26.24-19.171 36.98-31.124 10.68-11.89 20.47-24.324 28.18-38.374z"/></g><g filter="url(#B)"><path fill="#D2CAF3" d="M1002.9 318.042c1.35-2.463 3.06-5.108 4.6-7.856-.23-1.638-.33-3.507 1.65-5.054 2.77-2.169-.8-1.4-.8-4.863 0-11.828 11.43-17.025 18.23-25.377 6.18-7.578 17.02-11.306 25.98-13.705 24.12-6.46 51.52-18.577 75.98-8.046 34.55 14.867 60.19 43.407 81.8 73.301 20.9 28.901 40.49 56.174 48.96 91.427 6.66 27.702-7.2 55.046-25.01 75.777-23.24 27.068-67.02 34.295-99.32 42.796-39.53 10.403-80.96 8.619-121.51 8.134-22.902-.273-44.286-5.08-66.389-10.787-16.451-4.248-32.32-9.581-46.139-19.806-16.521-12.225-36.2-36.328-34.868-58.181 1.479-24.251 18.914-38.53 38.038-51.285 10.726-7.154 22.326-11.117 33.636-16.976 14.387-7.454 26.24-19.172 36.981-31.125 10.685-11.889 20.476-24.324 28.181-38.374z"/></g><g filter="url(#C)"><path fill="#D2CAF3" d="M296.896-26.958c1.349-2.463 3.061-5.108 4.608-7.855-.233-1.64-.337-3.508 1.643-5.055 2.778-2.17-.792-1.4-.792-4.863 0-11.828 11.422-17.025 18.226-25.377 6.175-7.578 17.015-11.306 25.976-13.705 24.123-6.46 51.519-18.577 75.988-8.046 34.546 14.867 60.182 43.407 81.799 73.3 20.901 28.902 40.483 56.175 48.957 91.428 6.658 27.702-7.204 55.046-25.007 75.777-23.246 27.068-67.02 34.295-99.322 42.796-39.532 10.403-80.966 8.619-121.51 8.134-22.904-.273-44.288-5.08-66.391-10.787-16.451-4.248-32.32-9.581-46.139-19.806-16.521-12.225-36.2-36.328-34.868-58.181 1.479-24.25 18.914-38.53 38.038-51.285 10.726-7.154 22.326-11.117 33.636-16.977 14.387-7.453 26.24-19.171 36.981-31.124 10.685-11.89 20.476-24.324 28.177-38.374z"/></g><g filter="url(#D)"><path fill="#DEC1E5" d="M248.896 507.042c1.349-2.463 3.061-5.108 4.608-7.856-.233-1.638-.337-3.507 1.643-5.054 2.778-2.169-.792-1.4-.792-4.863 0-11.828 11.422-17.025 18.226-25.377 6.175-7.578 17.015-11.306 25.976-13.705 24.123-6.46 51.519-18.577 75.988-8.046 34.546 14.867 60.182 43.407 81.799 73.301 20.901 28.901 40.483 56.174 48.957 91.427 6.658 27.702-7.204 55.046-25.007 75.777-23.246 27.068-67.02 34.295-99.322 42.796-39.532 10.403-80.966 8.619-121.51 8.134-22.904-.273-44.288-5.08-66.391-10.787-16.451-4.248-32.32-9.581-46.139-19.806-16.521-12.225-36.2-36.328-34.868-58.181 1.479-24.251 18.914-38.53 38.038-51.285 10.726-7.154 22.326-11.117 33.636-16.976 14.387-7.454 26.24-19.172 36.981-31.125 10.685-11.889 20.476-24.324 28.177-38.374z"/></g><g filter="url(#E)"><path fill="#DDFFE8" d="M1037.06 670.382c-.08 2.807-.4 5.941-.53 9.092.95 1.354 1.89 2.971.83 5.249-1.49 3.194 1.34.886 2.92 3.971 5.37 10.536-2.44 20.356-4.71 30.889-2.05 9.556-10.01 17.804-16.9 24.014-18.55 16.718-37.45 39.963-64.031 41.705-37.53 2.459-73.336-11.311-106.179-28.113-31.753-16.244-61.592-31.636-85.163-59.186-18.522-21.648-18.603-52.306-12.168-78.863 8.403-34.676 44.11-61.01 69.018-83.263 30.485-27.236 68.202-44.479 104.537-62.475 20.526-10.167 41.758-15.605 64.04-20.567 16.586-3.694 33.146-6.156 50.096-3.329 20.28 3.38 48.76 15.904 57.51 35.976 9.7 22.272.66 42.916-10.58 62.969-6.3 11.248-14.83 20.051-22.24 30.41-9.43 13.178-14.66 29.004-18.79 44.533-4.12 15.447-7.19 30.973-7.66 46.988z"/></g><g filter="url(#F)"><path fill="#DDFFE8" d="M170.896 828.042c1.349-2.463 3.061-5.108 4.608-7.856-.233-1.638-.337-3.507 1.643-5.054 2.778-2.169-.792-1.4-.792-4.863 0-11.828 11.422-17.025 18.226-25.377 6.175-7.578 17.015-11.306 25.976-13.705 24.123-6.46 51.519-18.577 75.988-8.046 34.546 14.867 60.182 43.407 81.799 73.301 20.901 28.901 40.483 56.174 48.957 91.427 6.658 27.702-7.204 55.046-25.007 75.781-23.246 27.06-67.02 34.29-99.322 42.79-39.532 10.41-80.966 8.62-121.51 8.14-22.904-.28-44.288-5.08-66.391-10.79-16.451-4.25-32.32-9.58-46.139-19.81-16.521-12.22-36.2-36.325-34.868-58.178 1.479-24.251 18.914-38.53 38.038-51.285 10.726-7.154 22.326-11.117 33.636-16.976 14.387-7.454 26.24-19.172 36.981-31.125 10.685-11.889 20.476-24.324 28.177-38.374z"/></g><g filter="url(#G)"><path fill="#EBCB9C" fill-opacity=".28" d="M941.896 678.042c1.349-2.463 3.061-5.108 4.608-7.856-.233-1.638-.337-3.507 1.643-5.054 2.778-2.169-.792-1.4-.792-4.863 0-11.828 11.422-17.025 18.226-25.377 6.175-7.578 17.015-11.306 25.976-13.705 24.123-6.46 51.523-18.577 75.983-8.046 34.55 14.867 60.19 43.407 81.8 73.301 20.9 28.901 40.49 56.174 48.96 91.427 6.66 27.702-7.2 55.046-25.01 75.777-23.24 27.068-67.02 34.295-99.32 42.796-39.53 10.403-80.964 8.619-121.508 8.134-22.904-.273-44.288-5.08-66.391-10.787-16.451-4.248-32.32-9.581-46.139-19.806-16.521-12.225-36.2-36.328-34.868-58.181 1.479-24.251 18.914-38.53 38.038-51.285 10.726-7.154 22.326-11.117 33.636-16.976 14.387-7.454 26.24-19.172 36.981-31.125 10.685-11.889 20.476-24.324 28.177-38.374z"/></g><g filter="url(#H)"><path fill="#C4D7F5" d="M895.896 703.042c1.349-2.463 3.061-5.108 4.608-7.856-.233-1.638-.337-3.507 1.643-5.054 2.778-2.169-.792-1.4-.792-4.863 0-11.828 11.422-17.025 18.226-25.377 6.175-7.578 17.015-11.306 25.976-13.705 24.123-6.46 51.519-18.577 75.983-8.046 34.55 14.867 60.19 43.407 81.8 73.301 20.9 28.901 40.49 56.174 48.96 91.427 6.66 27.702-7.2 55.046-25.01 75.777-23.24 27.068-67.02 34.295-99.32 42.796-39.53 10.403-80.964 8.619-121.508 8.134-22.904-.273-44.288-5.08-66.391-10.787-16.451-4.248-32.32-9.581-46.139-19.806-16.521-12.225-36.2-36.328-34.868-58.181 1.479-24.251 18.914-38.53 38.038-51.285 10.726-7.154 22.326-11.117 33.636-16.976 14.387-7.454 26.24-19.172 36.981-31.125 10.685-11.889 20.476-24.324 28.177-38.374z"/></g><g filter="url(#I)"><path fill="#C4D7F5" fill-opacity=".62" d="M-150.104 757.042c1.349-2.463 3.061-5.108 4.608-7.856-.233-1.638-.337-3.507 1.643-5.054 2.778-2.169-.792-1.4-.792-4.863 0-11.828 11.422-17.025 18.226-25.377 6.175-7.578 17.015-11.306 25.976-13.705 24.123-6.46 51.52-18.577 75.988-8.046 34.546 14.867 60.182 43.407 81.8 73.301 20.9 28.901 40.482 56.174 48.956 91.427 6.658 27.702-7.204 55.046-25.007 75.777-23.246 27.068-67.02 34.295-99.322 42.796-39.532 10.403-80.966 8.619-121.51 8.134-22.904-.273-44.288-5.08-66.391-10.787-16.451-4.248-32.32-9.581-46.139-19.806-16.521-12.225-36.2-36.328-34.868-58.181 1.479-24.251 18.914-38.53 38.038-51.285 10.726-7.154 22.326-11.117 33.636-16.976 14.387-7.454 26.24-19.172 36.981-31.125 10.685-11.889 20.476-24.324 28.177-38.374z"/></g><g filter="url(#J)"><path fill="#D2CAF3" d="M595.896 486.042c1.349-2.463 3.061-5.108 4.608-7.856-.233-1.638-.337-3.507 1.643-5.054 2.778-2.169-.792-1.4-.792-4.863 0-11.828 11.422-17.025 18.226-25.377 6.175-7.578 17.015-11.306 25.976-13.705 24.123-6.46 51.519-18.577 75.988-8.046 34.546 14.867 60.182 43.407 81.799 73.301 20.901 28.901 40.483 56.174 48.957 91.427 6.658 27.702-7.204 55.046-25.007 75.777-23.246 27.068-67.02 34.295-99.322 42.796-39.532 10.403-80.966 8.619-121.51 8.134-22.904-.273-44.288-5.08-66.391-10.787-16.451-4.248-32.32-9.581-46.139-19.806-16.521-12.225-36.2-36.328-34.868-58.181 1.479-24.251 18.914-38.53 38.038-51.285 10.726-7.154 22.326-11.117 33.636-16.976 14.387-7.454 26.24-19.172 36.981-31.125 10.685-11.889 20.476-24.324 28.177-38.374z"/></g><g filter="url(#K)"><path fill="#D2CAF3" d="M517.896 807.042c1.349-2.463 3.061-5.108 4.608-7.856-.233-1.638-.337-3.507 1.643-5.054 2.778-2.169-.792-1.4-.792-4.863 0-11.828 11.422-17.025 18.226-25.377 6.175-7.578 17.015-11.306 25.976-13.705 24.123-6.46 51.519-18.577 75.988-8.046 34.546 14.867 60.182 43.407 81.799 73.301 20.901 28.901 40.483 56.174 48.957 91.427 6.658 27.702-7.204 55.046-25.007 75.777-23.246 27.064-67.02 34.294-99.322 42.794-39.532 10.41-80.966 8.62-121.51 8.14-22.904-.28-44.288-5.08-66.391-10.79-16.451-4.25-32.32-9.58-46.139-19.81-16.521-12.222-36.2-36.325-34.868-58.178 1.479-24.251 18.914-38.53 38.038-51.285 10.726-7.154 22.326-11.117 33.636-16.976 14.387-7.454 26.24-19.172 36.981-31.125 10.685-11.889 20.476-24.324 28.177-38.374z"/></g><g filter="url(#L)"><path fill="#D2CAF3" d="M-188.104 462.042c1.349-2.463 3.061-5.108 4.608-7.856-.233-1.638-.337-3.507 1.643-5.054 2.778-2.169-.792-1.4-.792-4.863 0-11.828 11.422-17.025 18.226-25.377 6.175-7.578 17.015-11.306 25.976-13.705 24.123-6.46 51.52-18.577 75.988-8.046 34.546 14.867 60.182 43.407 81.8 73.301 20.9 28.901 40.482 56.174 48.956 91.427 6.658 27.702-7.204 55.046-25.007 75.777-23.246 27.068-67.02 34.295-99.322 42.796-39.532 10.403-80.966 8.619-121.51 8.134-22.904-.273-44.288-5.08-66.391-10.787-16.451-4.248-32.32-9.581-46.139-19.806-16.521-12.225-36.2-36.328-34.868-58.181 1.479-24.251 18.914-38.53 38.038-51.285 10.726-7.154 22.326-11.117 33.636-16.976 14.387-7.454 26.24-19.172 36.981-31.125 10.685-11.889 20.476-24.324 28.177-38.374z"/></g><g filter="url(#M)"><path fill="#EBCB9C" fill-opacity=".28" d="M952.896 488.042c1.349-2.463 3.061-5.108 4.608-7.856-.233-1.638-.337-3.507 1.643-5.054 2.778-2.169-.792-1.4-.792-4.863 0-11.828 11.422-17.025 18.226-25.377 6.175-7.578 17.015-11.306 25.979-13.705 24.12-6.46 51.52-18.577 75.98-8.046 34.55 14.867 60.19 43.407 81.8 73.301 20.9 28.901 40.49 56.174 48.96 91.427 6.66 27.702-7.2 55.046-25.01 75.777-23.24 27.068-67.02 34.295-99.32 42.796-39.53 10.403-80.96 8.619-121.508 8.134-22.904-.273-44.288-5.08-66.391-10.787-16.451-4.248-32.32-9.581-46.139-19.806-16.521-12.225-36.2-36.328-34.868-58.181 1.479-24.251 18.914-38.53 38.038-51.285 10.726-7.154 22.326-11.117 33.636-16.976 14.387-7.454 26.24-19.172 36.981-31.125 10.685-11.889 20.476-24.324 28.177-38.374z"/></g></g><defs><filter id="b" width="783" height="684" x="-77" y="-162" color-interpolation-filters="sRGB" filterUnits="userSpaceOnUse"><feFlood flood-opacity="0" result="BackgroundImageFix"/><feBlend in="SourceGraphic" in2="BackgroundImageFix" result="shape"/><feGaussianBlur result="effect1_foregroundBlur_2_3655" stdDeviation="97"/></filter><filter id="c" width="741.18" height="725.307" x="558.267" y="-151.72" color-interpolation-filters="sRGB" filterUnits="userSpaceOnUse"><feFlood flood-opacity="0" result="BackgroundImageFix"/><feBlend in="SourceGraphic" in2="BackgroundImageFix" result="shape"/><feGaussianBlur result="effect1_foregroundBlur_2_3655" stdDeviation="97"/></filter><filter id="d" width="783" height="684" x="-155" y="159" color-interpolation-filters="sRGB" filterUnits="userSpaceOnUse"><feFlood flood-opacity="0" result="BackgroundImageFix"/><feBlend in="SourceGraphic" in2="BackgroundImageFix" result="shape"/><feGaussianBlur result="effect1_foregroundBlur_2_3655" stdDeviation="97"/></filter><filter id="e" width="783" height="684" x="616" y="9" color-interpolation-filters="sRGB" filterUnits="userSpaceOnUse"><feFlood flood-opacity="0" result="BackgroundImageFix"/><feBlend in="SourceGraphic" in2="BackgroundImageFix" result="shape"/><feGaussianBlur result="effect1_foregroundBlur_2_3655" stdDeviation="97"/></filter><filter id="f" width="783" height="684" x="570" y="34" color-interpolation-filters="sRGB" filterUnits="userSpaceOnUse"><feFlood flood-opacity="0" result="BackgroundImageFix"/><feBlend in="SourceGraphic" in2="BackgroundImageFix" result="shape"/><feGaussianBlur result="effect1_foregroundBlur_2_3655" stdDeviation="97"/></filter><filter id="g" width="783" height="684" x="-476" y="88" color-interpolation-filters="sRGB" filterUnits="userSpaceOnUse"><feFlood flood-opacity="0" result="BackgroundImageFix"/><feBlend in="SourceGraphic" in2="BackgroundImageFix" result="shape"/><feGaussianBlur result="effect1_foregroundBlur_2_3655" stdDeviation="97"/></filter><filter id="h" width="783" height="684" x="270" y="-183" color-interpolation-filters="sRGB" filterUnits="userSpaceOnUse"><feFlood flood-opacity="0" result="BackgroundImageFix"/><feBlend in="SourceGraphic" in2="BackgroundImageFix" result="shape"/><feGaussianBlur result="effect1_foregroundBlur_2_3655" stdDeviation="97"/></filter><filter id="i" width="783" height="684" x="192" y="138" color-interpolation-filters="sRGB" filterUnits="userSpaceOnUse"><feFlood flood-opacity="0" result="BackgroundImageFix"/><feBlend in="SourceGraphic" in2="BackgroundImageFix" result="shape"/><feGaussianBlur result="effect1_foregroundBlur_2_3655" stdDeviation="97"/></filter><filter id="j" width="783" height="684" x="-514" y="-207" color-interpolation-filters="sRGB" filterUnits="userSpaceOnUse"><feFlood flood-opacity="0" result="BackgroundImageFix"/><feBlend in="SourceGraphic" in2="BackgroundImageFix" result="shape"/><feGaussianBlur result="effect1_foregroundBlur_2_3655" stdDeviation="97"/></filter><filter id="k" width="783" height="684" x="627" y="-181" color-interpolation-filters="sRGB" filterUnits="userSpaceOnUse"><feFlood flood-opacity="0" result="BackgroundImageFix"/><feBlend in="SourceGraphic" in2="BackgroundImageFix" result="shape"/><feGaussianBlur result="effect1_foregroundBlur_2_3655" stdDeviation="97"/></filter><filter id="l" width="783" height="684" x="205" y="-127" color-interpolation-filters="sRGB" filterUnits="userSpaceOnUse"><feFlood flood-opacity="0" result="BackgroundImageFix"/><feBlend in="SourceGraphic" in2="BackgroundImageFix" result="shape"/><feGaussianBlur result="effect1_foregroundBlur_2_3655" stdDeviation="97"/></filter><filter id="m" width="741.18" height="725.307" x="840.267" y="-116.72" color-interpolation-filters="sRGB" filterUnits="userSpaceOnUse"><feFlood flood-opacity="0" result="BackgroundImageFix"/><feBlend in="SourceGraphic" in2="BackgroundImageFix" result="shape"/><feGaussianBlur result="effect1_foregroundBlur_2_3655" stdDeviation="97"/></filter><filter id="n" width="783" height="684" x="127" y="194" color-interpolation-filters="sRGB" filterUnits="userSpaceOnUse"><feFlood flood-opacity="0" result="BackgroundImageFix"/><feBlend in="SourceGraphic" in2="BackgroundImageFix" result="shape"/><feGaussianBlur result="effect1_foregroundBlur_2_3655" stdDeviation="97"/></filter><filter id="o" width="783" height="684" x="898" y="44" color-interpolation-filters="sRGB" filterUnits="userSpaceOnUse"><feFlood flood-opacity="0" result="BackgroundImageFix"/><feBlend in="SourceGraphic" in2="BackgroundImageFix" result="shape"/><feGaussianBlur result="effect1_foregroundBlur_2_3655" stdDeviation="97"/></filter><filter id="p" width="783" height="684" x="852" y="69" color-interpolation-filters="sRGB" filterUnits="userSpaceOnUse"><feFlood flood-opacity="0" result="BackgroundImageFix"/><feBlend in="SourceGraphic" in2="BackgroundImageFix" result="shape"/><feGaussianBlur result="effect1_foregroundBlur_2_3655" stdDeviation="97"/></filter><filter id="q" width="783" height="684" x="-194" y="123" color-interpolation-filters="sRGB" filterUnits="userSpaceOnUse"><feFlood flood-opacity="0" result="BackgroundImageFix"/><feBlend in="SourceGraphic" in2="BackgroundImageFix" result="shape"/><feGaussianBlur result="effect1_foregroundBlur_2_3655" stdDeviation="97"/></filter><filter id="r" width="783" height="684" x="552" y="-148" color-interpolation-filters="sRGB" filterUnits="userSpaceOnUse"><feFlood flood-opacity="0" result="BackgroundImageFix"/><feBlend in="SourceGraphic" in2="BackgroundImageFix" result="shape"/><feGaussianBlur result="effect1_foregroundBlur_2_3655" stdDeviation="97"/></filter><filter id="s" width="783" height="684" x="474" y="173" color-interpolation-filters="sRGB" filterUnits="userSpaceOnUse"><feFlood flood-opacity="0" result="BackgroundImageFix"/><feBlend in="SourceGraphic" in2="BackgroundImageFix" result="shape"/><feGaussianBlur result="effect1_foregroundBlur_2_3655" stdDeviation="97"/></filter><filter id="t" width="783" height="684" x="-232" y="-172" color-interpolation-filters="sRGB" filterUnits="userSpaceOnUse"><feFlood flood-opacity="0" result="BackgroundImageFix"/><feBlend in="SourceGraphic" in2="BackgroundImageFix" result="shape"/><feGaussianBlur result="effect1_foregroundBlur_2_3655" stdDeviation="97"/></filter><filter id="u" width="783" height="684" x="909" y="-146" color-interpolation-filters="sRGB" filterUnits="userSpaceOnUse"><feFlood flood-opacity="0" result="BackgroundImageFix"/><feBlend in="SourceGraphic" in2="BackgroundImageFix" result="shape"/><feGaussianBlur result="effect1_foregroundBlur_2_3655" stdDeviation="97"/></filter><filter id="v" width="783" height="684" x="403" y="-245" color-interpolation-filters="sRGB" filterUnits="userSpaceOnUse"><feFlood flood-opacity="0" result="BackgroundImageFix"/><feBlend in="SourceGraphic" in2="BackgroundImageFix" result="shape"/><feGaussianBlur result="effect1_foregroundBlur_2_3655" stdDeviation="97"/></filter><filter id="w" width="741.18" height="725.307" x="1038.27" y="-234.72" color-interpolation-filters="sRGB" filterUnits="userSpaceOnUse"><feFlood flood-opacity="0" result="BackgroundImageFix"/><feBlend in="SourceGraphic" in2="BackgroundImageFix" result="shape"/><feGaussianBlur result="effect1_foregroundBlur_2_3655" stdDeviation="97"/></filter><filter id="x" width="783" height="684" x="325" y="76" color-interpolation-filters="sRGB" filterUnits="userSpaceOnUse"><feFlood flood-opacity="0" result="BackgroundImageFix"/><feBlend in="SourceGraphic" in2="BackgroundImageFix" result="shape"/><feGaussianBlur result="effect1_foregroundBlur_2_3655" stdDeviation="97"/></filter><filter id="y" width="783" height="684" x="1050" y="-49" color-interpolation-filters="sRGB" filterUnits="userSpaceOnUse"><feFlood flood-opacity="0" result="BackgroundImageFix"/><feBlend in="SourceGraphic" in2="BackgroundImageFix" result="shape"/><feGaussianBlur result="effect1_foregroundBlur_2_3655" stdDeviation="97"/></filter><filter id="z" width="783" height="684" x="-91" y="-82" color-interpolation-filters="sRGB" filterUnits="userSpaceOnUse"><feFlood flood-opacity="0" result="BackgroundImageFix"/><feBlend in="SourceGraphic" in2="BackgroundImageFix" result="shape"/><feGaussianBlur result="effect1_foregroundBlur_2_3655" stdDeviation="97"/></filter><filter id="A" width="783" height="684" x="750" y="-266" color-interpolation-filters="sRGB" filterUnits="userSpaceOnUse"><feFlood flood-opacity="0" result="BackgroundImageFix"/><feBlend in="SourceGraphic" in2="BackgroundImageFix" result="shape"/><feGaussianBlur result="effect1_foregroundBlur_2_3655" stdDeviation="97"/></filter><filter id="B" width="783" height="684" x="672" y="55" color-interpolation-filters="sRGB" filterUnits="userSpaceOnUse"><feFlood flood-opacity="0" result="BackgroundImageFix"/><feBlend in="SourceGraphic" in2="BackgroundImageFix" result="shape"/><feGaussianBlur result="effect1_foregroundBlur_2_3655" stdDeviation="97"/></filter><filter id="C" width="783" height="684" x="-34" y="-290" color-interpolation-filters="sRGB" filterUnits="userSpaceOnUse"><feFlood flood-opacity="0" result="BackgroundImageFix"/><feBlend in="SourceGraphic" in2="BackgroundImageFix" result="shape"/><feGaussianBlur result="effect1_foregroundBlur_2_3655" stdDeviation="97"/></filter><filter id="D" width="783" height="684" x="-82" y="244" color-interpolation-filters="sRGB" filterUnits="userSpaceOnUse"><feFlood flood-opacity="0" result="BackgroundImageFix"/><feBlend in="SourceGraphic" in2="BackgroundImageFix" result="shape"/><feGaussianBlur result="effect1_foregroundBlur_2_3655" stdDeviation="97"/></filter><filter id="E" width="741.18" height="725.307" x="553.267" y="254.28" color-interpolation-filters="sRGB" filterUnits="userSpaceOnUse"><feFlood flood-opacity="0" result="BackgroundImageFix"/><feBlend in="SourceGraphic" in2="BackgroundImageFix" result="shape"/><feGaussianBlur result="effect1_foregroundBlur_2_3655" stdDeviation="97"/></filter><filter id="F" width="783" height="684" x="-160" y="565" color-interpolation-filters="sRGB" filterUnits="userSpaceOnUse"><feFlood flood-opacity="0" result="BackgroundImageFix"/><feBlend in="SourceGraphic" in2="BackgroundImageFix" result="shape"/><feGaussianBlur result="effect1_foregroundBlur_2_3655" stdDeviation="97"/></filter><filter id="G" width="783" height="684" x="611" y="415" color-interpolation-filters="sRGB" filterUnits="userSpaceOnUse"><feFlood flood-opacity="0" result="BackgroundImageFix"/><feBlend in="SourceGraphic" in2="BackgroundImageFix" result="shape"/><feGaussianBlur result="effect1_foregroundBlur_2_3655" stdDeviation="97"/></filter><filter id="H" width="783" height="684" x="565" y="440" color-interpolation-filters="sRGB" filterUnits="userSpaceOnUse"><feFlood flood-opacity="0" result="BackgroundImageFix"/><feBlend in="SourceGraphic" in2="BackgroundImageFix" result="shape"/><feGaussianBlur result="effect1_foregroundBlur_2_3655" stdDeviation="97"/></filter><filter id="I" width="783" height="684" x="-481" y="494" color-interpolation-filters="sRGB" filterUnits="userSpaceOnUse"><feFlood flood-opacity="0" result="BackgroundImageFix"/><feBlend in="SourceGraphic" in2="BackgroundImageFix" result="shape"/><feGaussianBlur result="effect1_foregroundBlur_2_3655" stdDeviation="97"/></filter><filter id="J" width="783" height="684" x="265" y="223" color-interpolation-filters="sRGB" filterUnits="userSpaceOnUse"><feFlood flood-opacity="0" result="BackgroundImageFix"/><feBlend in="SourceGraphic" in2="BackgroundImageFix" result="shape"/><feGaussianBlur result="effect1_foregroundBlur_2_3655" stdDeviation="97"/></filter><filter id="K" width="783" height="684" x="187" y="544" color-interpolation-filters="sRGB" filterUnits="userSpaceOnUse"><feFlood flood-opacity="0" result="BackgroundImageFix"/><feBlend in="SourceGraphic" in2="BackgroundImageFix" result="shape"/><feGaussianBlur result="effect1_foregroundBlur_2_3655" stdDeviation="97"/></filter><filter id="L" width="783" height="684" x="-519" y="199" color-interpolation-filters="sRGB" filterUnits="userSpaceOnUse"><feFlood flood-opacity="0" result="BackgroundImageFix"/><feBlend in="SourceGraphic" in2="BackgroundImageFix" result="shape"/><feGaussianBlur result="effect1_foregroundBlur_2_3655" stdDeviation="97"/></filter><filter id="M" width="783" height="684" x="622" y="225" color-interpolation-filters="sRGB" filterUnits="userSpaceOnUse"><feFlood flood-opacity="0" result="BackgroundImageFix"/><feBlend in="SourceGraphic" in2="BackgroundImageFix" result="shape"/><feGaussianBlur result="effect1_foregroundBlur_2_3655" stdDeviation="97"/></filter></defs></svg>